<svg width="24" height="24" viewBox="0 0 24 24" xmlns="http://www.w3.org/2000/svg"><title>aboutme-square</title><g fill="none" fill-rule="evenodd"><rect width="24" height="24" rx="2" class="is-color" fill="#044A75"/><g class="is-white" fill="#FFF"><path d="M11.8 15.02V11.3c0-.638-.283-1.005-.875-1.005-.53 0-.886.378-1.123.65v4.075H8.267V11.3c0-.638-.272-1.005-.863-1.005-.53 0-.9.378-1.123.65v4.075H4.746V9.082H6.28v.753c.26-.307.852-.828 1.773-.828.816 0 1.37.343 1.62 1.04.342-.496.98-1.04 1.903-1.04 1.11 0 1.76.662 1.76 1.938v4.075H11.8M17.52 10.153c-.9 0-1.395.662-1.5 1.383h3.012c-.082-.685-.566-1.383-1.512-1.383zm-1.478 2.364c.154.756.78 1.287 1.655 1.287.473 0 1.158-.176 1.56-.59l.768.887c-.696.734-1.738.934-2.446.934-1.727 0-3.074-1.24-3.074-3.014 0-1.654 1.24-3.013 2.99-3.013 1.69 0 2.942 1.3 2.942 3.013v.497h-4.396z"/></g></g></svg>