<svg width="80" height="24" viewBox="0 0 80 24" xmlns="http://www.w3.org/2000/svg"><title>aboutme</title><g class="is-color" fill="#044A75" fill-rule="evenodd"><path d="M6.68 16.484V14.96c-.514-.682-1.443-1.032-2.37-1.032-1.218 0-2.146.72-2.146 1.794 0 1.093.928 1.794 2.145 1.794.928 0 1.856-.35 2.37-1.032zm0 2.268V17.66C5.94 18.526 4.765 19 3.445 19 1.834 19 0 17.886 0 15.7c0-2.308 1.815-3.257 3.444-3.257 1.36 0 2.495.433 3.237 1.28v-1.486c0-1.154-.968-1.855-2.33-1.855-1.113 0-2.103.412-2.95 1.28l-.907-1.506c1.157-1.115 2.6-1.61 4.188-1.61 2.228 0 4.167.928 4.167 3.587v6.618H6.68v.002zM14.995 17.082c1.71 0 2.804-1.382 2.804-3.32 0-1.917-1.094-3.3-2.805-3.3-1.03 0-2.083.6-2.578 1.34v3.96c.495.743 1.547 1.32 2.578 1.32zm-4.743 1.67V5h2.165v5.175c.804-1.072 1.96-1.63 3.196-1.63 2.577 0 4.434 2 4.434 5.217 0 3.3-1.877 5.237-4.434 5.237-1.28 0-2.433-.62-3.196-1.61v1.36h-2.165v.002zM29.216 13.763c0-1.753-1.01-3.3-2.866-3.3-1.835 0-2.866 1.547-2.866 3.3 0 1.773 1.03 3.32 2.866 3.32 1.856 0 2.866-1.547 2.866-3.32m-7.98 0c0-2.866 1.938-5.216 5.114-5.216 3.175 0 5.114 2.35 5.114 5.216 0 2.845-1.94 5.237-5.114 5.237-3.176 0-5.114-2.392-5.114-5.237M39.394 18.752v-1.32c-.7.784-1.938 1.568-3.505 1.568-2.146 0-3.218-1.134-3.218-3.155v-7.05h2.165v6.247c0 1.546.784 2.04 2.02 2.04 1.094 0 2.042-.638 2.537-1.298v-6.99h2.165v9.96h-2.166v-.002zM44.618 16.423V10.67h-1.65V8.794h1.65V6.072h2.165v2.722h2.02v1.877h-2.02v5.217c0 .68.33 1.196.95 1.196.41 0 .782-.186.947-.37l.516 1.65c-.392.348-1.03.637-2.02.637-1.692 0-2.558-.908-2.558-2.577M50.233 17.516c0-.763.66-1.422 1.443-1.422.784 0 1.444.66 1.444 1.422 0 .783-.66 1.464-1.444 1.464-.783 0-1.443-.682-1.443-1.464M66.444 18.752v-6.495c0-1.072-.474-1.794-1.65-1.794-.97 0-1.877.66-2.31 1.32v6.97H60.32v-6.496c0-1.072-.455-1.794-1.63-1.794-.97 0-1.856.68-2.31 1.32v6.97h-2.165v-9.96h2.165v1.34c.434-.597 1.733-1.587 3.26-1.587 1.483 0 2.39.742 2.72 1.814.558-.887 1.878-1.814 3.382-1.814 1.815 0 2.867.99 2.867 3.01v7.196h-2.166M74.85 10.32c-1.836 0-2.703 1.423-2.785 2.618h5.61c-.063-1.175-.867-2.618-2.826-2.618m-5.033 3.443c0-2.887 2.104-5.216 5.052-5.216 2.99 0 4.887 2.268 4.887 5.402v.535h-7.672c.165 1.485 1.28 2.742 3.155 2.742.99 0 2.124-.392 2.846-1.114l.99 1.423c-1.01.95-2.475 1.464-4.04 1.464-3.012 0-5.22-2.083-5.22-5.237"/></g></svg>