<svg width="24" height="24" viewBox="0 0 24 24" xmlns="http://www.w3.org/2000/svg"><title>behance-square</title><g class="is-color" fill="#1769FF" fill-rule="evenodd"><path d="M6.534 16.906c.31 0 .606-.028.884-.09.284-.06.533-.16.745-.304.21-.14.387-.33.514-.572.128-.24.19-.553.19-.93 0-.74-.21-1.265-.623-1.583-.415-.315-.967-.47-1.647-.47H3.16v3.95h3.374zm-.177-6.108c.56 0 1.023-.133 1.39-.402.364-.266.54-.705.54-1.306 0-.334-.06-.61-.176-.825-.12-.213-.282-.38-.484-.498-.203-.123-.432-.207-.697-.252-.262-.05-.534-.07-.814-.07H3.16v3.353h3.197zM6.765 5c.687 0 1.307.06 1.873.182.563.12 1.044.318 1.45.592.4.274.71.637.937 1.095.218.45.327 1.015.327 1.683 0 .723-.163 1.326-.49 1.81-.33.48-.817.875-1.465 1.18.883.255 1.537.703 1.97 1.338.436.64.65 1.407.65 2.305 0 .727-.14 1.354-.42 1.88-.28.534-.66.966-1.133 1.3-.476.336-1.022.584-1.633.744-.604.16-1.23.24-1.874.24H0V5h6.765zM20.35 11.4c-.34-.376-.913-.58-1.614-.58-.456 0-.833.077-1.135.234-.295.154-.536.346-.723.572-.184.23-.31.473-.384.732-.072.253-.117.482-.128.685h4.643c-.07-.728-.317-1.266-.658-1.644m-3.28 5.458c.43.417 1.046.627 1.847.627.574 0 1.07-.146 1.49-.436.413-.29.664-.6.762-.922h2.513c-.406 1.25-1.018 2.143-1.855 2.68-.825.54-1.834.81-3.008.81-.818 0-1.555-.133-2.216-.394-.66-.264-1.214-.635-1.677-1.117-.452-.485-.804-1.058-1.056-1.732-.247-.67-.372-1.41-.372-2.214 0-.776.13-1.502.385-2.173.26-.673.618-1.254 1.086-1.74.474-.49 1.03-.877 1.684-1.16.652-.28 1.37-.423 2.167-.423.88 0 1.65.17 2.31.515.658.34 1.197.8 1.62 1.375.424.576.726 1.234.913 1.972.188.736.254 1.506.2 2.313h-7.498c0 .823.277 1.6.705 2.018M15.78 7.23h5.816V5.814H15.78"/></g></svg>