<svg width="82" height="24" viewBox="0 0 82 24" xmlns="http://www.w3.org/2000/svg"><title>behance</title><g class="is-color" fill="#1769FF" fill-rule="evenodd"><path d="M6.534 16.906c.31 0 .606-.028.884-.09.284-.06.533-.16.745-.304.21-.14.387-.33.514-.572.128-.24.19-.553.19-.93 0-.74-.21-1.265-.623-1.583-.415-.315-.967-.47-1.647-.47H3.16v3.95h3.374zm-.177-6.108c.56 0 1.023-.133 1.39-.402.364-.266.54-.705.54-1.306 0-.334-.06-.61-.176-.825-.12-.213-.282-.38-.484-.498-.203-.123-.432-.207-.697-.252-.262-.05-.534-.07-.814-.07H3.16v3.353h3.197zM6.765 5c.687 0 1.307.06 1.873.182.563.12 1.044.318 1.45.592.4.274.71.637.937 1.095.218.45.327 1.015.327 1.683 0 .723-.163 1.326-.49 1.81-.33.48-.817.875-1.465 1.18.883.255 1.537.703 1.97 1.338.436.64.65 1.407.65 2.305 0 .727-.14 1.354-.42 1.88-.28.534-.66.966-1.133 1.3-.476.336-1.022.584-1.633.744-.604.16-1.23.24-1.874.24H0V5h6.765zM20.35 11.4c-.34-.376-.913-.58-1.614-.58-.456 0-.833.077-1.135.234-.295.154-.536.346-.723.572-.184.23-.31.473-.384.732-.072.253-.117.482-.128.685h4.643c-.07-.728-.317-1.266-.658-1.644m-3.28 5.458c.43.417 1.046.627 1.847.627.574 0 1.07-.146 1.49-.436.413-.29.664-.6.762-.922h2.513c-.406 1.25-1.018 2.143-1.855 2.68-.825.54-1.834.81-3.008.81-.818 0-1.555-.133-2.216-.394-.66-.264-1.214-.635-1.677-1.117-.452-.485-.804-1.058-1.056-1.732-.247-.67-.372-1.41-.372-2.214 0-.776.13-1.502.385-2.173.26-.673.618-1.254 1.086-1.74.474-.49 1.03-.877 1.684-1.16.652-.28 1.37-.423 2.167-.423.88 0 1.65.17 2.31.515.658.34 1.197.8 1.62 1.375.424.576.726 1.234.913 1.972.188.736.254 1.506.2 2.313h-7.498c0 .823.277 1.6.705 2.018M28.526 5v5.41h.065c.365-.6.823-1.04 1.385-1.31.562-.273 1.11-.408 1.645-.408.762 0 1.386.1 1.875.307.487.21.874.494 1.156.864.28.367.475.817.59 1.348.113.528.17 1.11.17 1.755v6.385h-2.866v-5.867c0-.856-.135-1.5-.4-1.92-.266-.42-.74-.632-1.422-.632-.772 0-1.33.234-1.675.695-.352.462-.522 1.222-.522 2.28v5.444h-2.867V5h2.868zM43.59 14.523c-.176.06-.375.11-.577.152-.21.04-.427.072-.653.1-.226.027-.456.058-.68.098-.214.043-.43.095-.63.163-.207.067-.39.156-.537.27-.155.115-.28.26-.373.432-.09.173-.14.398-.14.664 0 .253.05.468.14.644.094.175.22.31.38.41.162.102.35.173.56.212.215.043.436.058.662.058.562 0 .993-.093 1.302-.28.306-.187.536-.412.68-.673.148-.262.237-.525.267-.79.038-.27.055-.485.055-.647V14.27c-.124.11-.27.193-.454.253m-5.617-4.044c.29-.443.664-.8 1.12-1.068.457-.27.965-.46 1.538-.574.57-.117 1.14-.173 1.72-.173.52 0 1.045.037 1.588.11.533.075 1.022.22 1.464.434.442.215.802.51 1.08.898.283.376.427.886.427 1.518v5.415c0 .472.027.92.077 1.348.058.432.203.756.342.968l-2.917-.007c-.086-.126-.157-.32-.19-.49-.033-.165-.057-.335-.07-.51-.453.47-.987.8-1.606.988-.616.186-1.243.28-1.888.28-.495 0-.954-.063-1.384-.184-.425-.12-.8-.308-1.12-.562-.322-.258-.57-.578-.752-.967-.18-.39-.273-.854-.273-1.39 0-.592.107-1.08.317-1.46.206-.38.47-.688.802-.915.326-.23.7-.4 1.125-.514.42-.113.847-.206 1.27-.272.43-.066.85-.12 1.268-.16.42-.042.783-.1 1.105-.182.32-.08.577-.2.765-.352.185-.155.273-.378.26-.676 0-.307-.054-.552-.154-.735-.1-.18-.235-.32-.396-.422-.17-.1-.36-.167-.58-.203-.22-.032-.456-.05-.708-.05-.557 0-1 .124-1.313.363-.323.246-.508.65-.565 1.215h-2.864c.045-.675.21-1.23.51-1.674M51.627 8.962v1.448h.064c.362-.602.828-1.04 1.406-1.31.574-.274 1.17-.41 1.77-.41.767 0 1.396.1 1.88.308.495.21.88.495 1.157.865.286.367.482.817.596 1.348.117.53.173 1.112.173 1.756v6.385h-2.87v-5.866c0-.856-.134-1.5-.4-1.92-.272-.42-.74-.69-1.428-.69-.776 0-1.342.292-1.69.752-.35.462-.522 1.222-.522 2.28v5.444h-2.838V8.962h2.702zM65.375 10.82c-.458 0-.838.102-1.14.313-.313.21-.568.476-.762.805-.194.327-.328.69-.412 1.086-.078.396-.12.788-.12 1.18 0 .375.04.758.12 1.148.085.39.212.738.392 1.057.185.312.428.57.737.772.306.203.68.303 1.122.303.687 0 1.212-.192 1.58-.573.37-.38.597-.894.692-1.537h2.758c-.19 1.38-.728 2.43-1.608 3.157-.887.72-2.02 1.086-3.4 1.086-.78 0-1.49-.132-2.145-.393-.652-.264-1.208-.628-1.664-1.097-.456-.47-.81-1.03-1.07-1.68-.253-.652-.38-1.367-.38-2.144 0-.804.118-1.554.352-2.246.235-.69.58-1.287 1.04-1.79.455-.504 1.012-.896 1.673-1.178.66-.28 1.408-.423 2.252-.423.616 0 1.21.084 1.78.24.57.16 1.08.405 1.53.735.447.327.813.735 1.097 1.22.277.488.436 1.07.48 1.737h-2.798c-.184-1.188-.888-1.78-2.107-1.78M15.78 7.23h5.816V5.814H15.78M78.472 11.4c-.344-.376-.923-.58-1.615-.58-.455 0-.835.077-1.14.234-.297.154-.567.346-.75.572-.18.23-.31.473-.386.732-.067.253-.114.482-.126.685h4.68c-.08-.728-.323-1.266-.662-1.644m-3.314 5.458c.427.417 1.074.627 1.88.627.576 0 1.072-.146 1.487-.436.415-.29.67-.6.763-.922H81.8c-.4 1.25-1.02 2.143-1.848 2.68-.83.54-1.833.81-3.013.81-.82 0-1.56-.133-2.217-.394-.66-.264-1.212-.635-1.676-1.117-.458-.485-.808-1.058-1.057-1.732-.248-.67-.37-1.41-.37-2.214 0-.776.125-1.502.38-2.173.257-.673.622-1.254 1.09-1.74.476-.49 1.03-.877 1.68-1.16.652-.28 1.377-.423 2.168-.423.88 0 1.652.17 2.304.515.66.34 1.203.8 1.623 1.375.423.576.727 1.234.914 1.972.184.736.254 1.506.2 2.313h-7.53c.003.823.277 1.6.708 2.018"/></g></svg>