<svg width="75" height="24" viewBox="0 0 75 24" xmlns="http://www.w3.org/2000/svg"><title>eventbrite</title><g fill="none" fill-rule="evenodd"><path d="M2.697 24C1.187 24 0 22.47 0 20.52V3.48C0 1.528 1.184 0 2.697 0l.09.002 69.405 2.964C73.742 3.028 75 4.284 75 5.763v12.475c0 1.478-1.26 2.732-2.808 2.796L2.785 23.998 2.697 24z" class="is-color" fill="#FF8000"/><g class="is-white" fill="#FFF"><path d="M4.373 15.347L5.97 7.754c.157-.737.61-1.077 1.306-1.077h5.062c.58 0 .893.227.893.623 0 .227-.126.737-.354.964-.156.17-.34.227-.808.227H7.914l-.487 2.238h3.105c.538 0 .822.227.822.58 0 .214-.1.682-.312.91-.142.14-.326.226-.75.226H7.056l-.5 2.422h4.14c.58 0 .878.227.878.61 0 .24-.113.737-.34.978-.156.156-.355.227-.81.227H5.423c-.865 0-1.247-.44-1.05-1.333"/><path d="M13.92 16.014l-.566-3.942c-.142-1.078-.468-1.362-1.036-1.404-.028 0 .1-1.02 1.248-1.02.425 0 .723.113.993.382.382.383.552 1.007.623 1.956l.255 2.58 2.807-4.906c.014-.028 1.376.043 1.376.98 0 .31-.113.552-.425 1.02l-2.92 4.495c-.326.51-.865.596-1.248.596-.51.002-1.035-.183-1.106-.736M21.62 12.612c.37.028.695.042.993.042 1.928 0 2.467-.44 2.467-.978 0-.368-.383-.737-1.134-.737-1.05-.002-1.914.72-2.325 1.672m-1.942 1.29c0-2.51 1.928-4.31 4.353-4.31 1.758 0 2.737.82 2.737 2.026 0 1.418-.907 2.27-3.984 2.27-.426 0-.893-.03-1.418-.06v.044c0 .964.596 1.56 1.687 1.56.922 0 1.59-.412 2.042-1.007.028-.042.85.1.85.752 0 .368-.112.567-.382.85-.525.51-1.347.822-2.538.822-2.27 0-3.346-1.247-3.346-2.95M29.972 10.938c.553-.836 1.36-1.347 2.38-1.347 1.42 0 2.24.923 2.24 2.24 0 .497-.17 1.177-.41 2.03-.184.693-.327 1.246-.327 1.53 0 .396.184.552.567.61.03 0-.113.82-1.205.82-.935 0-1.375-.48-1.375-1.232 0-.397.127-.922.34-1.7.185-.653.312-1.193.312-1.49 0-.71-.397-1.134-1.12-1.134-.695 0-1.148.326-1.588 1.006l-.738 3.516c-.156.71-.41.95-.92.95h-.213c-.54 0-1.02-.212-.865-.95l1.26-5.954c.015-.043.242-.127.554-.127.57 0 1.122.312 1.108 1.233M36.097 14.242l.61-2.92h-.34c-.456 0-.725-.2-.725-.525 0-.2.085-.624.284-.837.142-.127.297-.198.695-.198h.41l.086-.397c.2-1.02.61-1.446 1.49-1.446.425 0 .75.17.737.24l-.34 1.602h1.163c.48 0 .752.213.752.525 0 .198-.086.638-.3.836-.127.128-.297.2-.68.2h-1.29l-.61 2.834c-.183.836.1 1.19.653 1.19.356 0 .668-.184.852-.353.057-.042.326.185.326.61 0 .297-.113.553-.34.78-.312.31-.81.48-1.475.48-1.588 0-2.31-.95-1.956-2.622M43.57 12.257l-.214.993c-.213 1.106.383 2.027 1.56 2.027 1.26 0 1.956-1.22 1.956-2.467 0-1.006-.638-1.63-1.474-1.63-.737 0-1.403.44-1.83 1.077m-.708 3.247c-.27.893-.71 1.234-1.488 1.234-.383 0-.71-.17-.695-.242l1.866-8.84c.155-.724.41-.964.922-.964h.226c.525 0 1.02.226.85.964l-.646 3.085c.51-.708 1.248-1.147 2.197-1.147 1.49 0 2.723 1.063 2.723 2.963 0 2.184-1.43 4.296-3.615 4.296-1.02-.002-1.913-.498-2.338-1.348M52.243 10.924c.425-.836 1.062-1.333 1.87-1.333.696 0 1.235.398 1.235.98 0 .978-.865 1.29-.895 1.26-.198-.212-.48-.41-.964-.41-.894 0-1.46.992-1.773 2.452l-.397 1.914c-.155.71-.41.95-.92.95h-.214c-.54 0-1.02-.212-.865-.95l1.264-5.954c.014-.043.24-.127.553-.127.567 0 1.12.312 1.106 1.22M56.902 7.84c0-.682.468-1.164 1.163-1.164.71 0 1.105.355 1.105.865 0 .667-.468 1.164-1.162 1.164-.71 0-1.106-.355-1.106-.865m-1.455 7.07l.908-4.24c.156-.725.41-.965.92-.965h.214c.538 0 1.02.212.865.964l-.922 4.295c-.157.765-.03 1.063.553 1.148.014.014-.1.71-1.163.71-1.29 0-1.616-.795-1.376-1.914M59.786 14.242l.61-2.92h-.34c-.455 0-.723-.2-.723-.525 0-.2.084-.624.283-.837.142-.127.297-.198.694-.198h.41l.087-.397c.198-1.02.608-1.446 1.488-1.446.426 0 .752.17.737.24l-.34 1.602h1.162c.482 0 .752.213.752.525 0 .198-.085.638-.298.836-.128.128-.298.2-.68.2h-1.292l-.61 2.834c-.184.836.1 1.19.653 1.19.353 0 .666-.184.85-.353.056-.042.326.185.326.61 0 .297-.114.553-.342.78-.31.31-.807.48-1.473.48-1.585 0-2.308-.95-1.954-2.622M66.536 12.612c.368.028.694.042.992.042 1.927 0 2.466-.44 2.466-.978 0-.368-.383-.737-1.134-.737-1.05-.002-1.914.72-2.324 1.672m-1.943 1.29c0-2.51 1.928-4.31 4.352-4.31 1.76 0 2.737.82 2.737 2.026 0 1.418-.907 2.27-3.985 2.27-.425 0-.892-.03-1.417-.06v.044c0 .964.595 1.56 1.686 1.56.922 0 1.59-.412 2.042-1.007.03-.042.852.1.852.752 0 .368-.113.567-.383.85-.525.51-1.348.822-2.538.822-2.27 0-3.347-1.247-3.347-2.95"/></g></g></svg>