<svg width="24" height="24" viewBox="0 0 24 24" xmlns="http://www.w3.org/2000/svg"><title>github-square</title><path d="M12 0C5.372 0 0 5.373 0 12c0 5.302 3.438 9.8 8.207 11.387.6.11.82-.26.82-.578 0-.286-.01-1.04-.017-2.042-3.338.725-4.042-1.61-4.042-1.61-.546-1.385-1.332-1.754-1.332-1.754-1.09-.745.082-.73.082-.73 1.204.086 1.838 1.238 1.838 1.238 1.07 1.834 2.81 1.304 3.492.997.11-.776.42-1.305.762-1.605-2.665-.303-5.466-1.332-5.466-5.93 0-1.31.468-2.382 1.235-3.22-.124-.306-.536-1.526.117-3.178 0 0 1.008-.323 3.3 1.23.957-.266 1.984-.4 3.004-.404 1.02.005 2.047.138 3.005.404 2.29-1.553 3.297-1.23 3.297-1.23.655 1.652.243 2.872.12 3.176.768.84 1.232 1.91 1.232 3.22 0 4.61-2.806 5.624-5.48 5.92.432.37.816 1.104.816 2.223 0 1.604-.015 2.898-.015 3.292 0 .32.216.694.825.577C20.565 21.795 24 17.3 24 12c0-6.627-5.373-12-12-12" class="is-black" fill="#000" fill-rule="evenodd"/></svg>