<svg width="24" height="24" viewBox="0 0 24 24" xmlns="http://www.w3.org/2000/svg"><title>googleplus-square</title><g class="is-color" fill="#DD4B39" fill-rule="evenodd"><path d="M7.9 10.75v2.593h3.72c-.308 1.58-1.696 2.725-3.72 2.725-2.26 0-4.09-1.91-4.09-4.17S5.64 7.732 7.9 7.732c1.018 0 1.93.352 2.648 1.036l1.97-1.97C11.32 5.685 9.76 5 7.9 5 4.09 5 1 8.09 1 11.9c0 3.81 3.09 6.9 6.9 6.9 3.985 0 6.606-2.8 6.606-6.742 0-.45-.043-.888-.11-1.308H7.9zM22.9 10.75h-2v-2h-2v2h-2v2h2v2h2v-2h2"/></g></svg>