<svg width="24" height="24" viewBox="0 0 24 24" xmlns="http://www.w3.org/2000/svg"><title>linkedin-square</title><g fill="none" fill-rule="evenodd"><rect width="24" height="24" rx="2" class="is-color" fill="#0077B5"/><g class="is-white" fill="#FFF"><path d="M3.557 20.45H7.12V8.997H3.557M5.34 3.304c1.138 0 2.062.925 2.062 2.064 0 1.14-.924 2.064-2.063 2.064-1.144 0-2.066-.925-2.066-2.064 0-1.14.92-2.064 2.065-2.064M9.352 8.997h3.412v1.566h.05c.474-.9 1.636-1.85 3.367-1.85 3.605 0 4.27 2.37 4.27 5.456v6.28h-3.558v-5.57c0-1.328-.023-3.037-1.85-3.037-1.852 0-2.135 1.448-2.135 2.942v5.665H9.352V8.997z"/></g></g></svg>