<svg width="24" height="24" viewBox="0 0 24 24" xmlns="http://www.w3.org/2000/svg"><title>node-square</title><g class="is-color" fill="#7FBD42" fill-rule="evenodd"><path d="M11.64 24c-.322 0-.642-.084-.923-.247L7.78 22.016c-.438-.245-.224-.332-.08-.383.585-.203.703-.25 1.328-.604.065-.037.15-.024.218.016l2.256 1.34c.082.044.197.044.272 0l8.795-5.077c.08-.048.133-.142.133-.24V6.92c0-.098-.053-.19-.137-.242l-8.79-5.072c-.082-.047-.19-.047-.272 0L2.716 6.68c-.085.05-.14.145-.14.24v10.15c0 .098.054.19.14.236l2.408 1.392c1.307.654 2.108-.116 2.108-.89V7.79c0-.143.114-.254.256-.254h1.115c.14 0 .255.112.255.253v10.02c0 1.746-.95 2.746-2.604 2.746-.508 0-.908 0-2.026-.55l-2.306-1.33C1.352 18.346 1 17.73 1 17.07V6.92c0-.66.353-1.274.922-1.602L10.717.236c.556-.315 1.296-.315 1.848 0l8.794 5.082c.57.33.923.944.923 1.603v10.15c0 .66-.354 1.274-.924 1.605l-8.795 5.078c-.28.163-.6.247-.926.247"/><path d="M14.355 17.007c-3.85 0-4.655-1.767-4.655-3.248 0-.142.113-.254.254-.254h1.137c.128 0 .234.09.254.215.172 1.16.684 1.743 3.01 1.743 1.854 0 2.642-.42 2.642-1.402 0-.566-.223-.986-3.103-1.268-2.406-.238-3.895-.77-3.895-2.695 0-1.775 1.496-2.833 4.003-2.833 2.82 0 4.213.978 4.39 3.076.006.072-.02.142-.068.196-.048.05-.115.08-.186.08h-1.14c-.12 0-.224-.083-.248-.198-.273-1.218-.94-1.608-2.745-1.608-2.023 0-2.258.705-2.258 1.233 0 .64.278.826 3.01 1.187 2.702.357 3.986.863 3.986 2.763 0 1.917-1.598 3.014-4.385 3.014"/></g></svg>