<svg width="82" height="24" viewBox="0 0 82 24" xmlns="http://www.w3.org/2000/svg"><title>node</title><g fill="none" fill-rule="evenodd"><g class="is-black" fill="#000"><path d="M13 12.517c0-.252-.133-.484-.35-.61L6.85 8.57c-.098-.057-.208-.087-.32-.092h-.06c-.11.005-.22.035-.32.092l-5.8 3.338c-.216.125-.35.357-.35.61l.013 8.987c0 .125.065.24.175.303.108.064.24.064.348 0l3.447-1.974c.218-.13.35-.358.35-.608v-4.2c0-.25.134-.48.35-.605l1.47-.844c.108-.063.228-.094.35-.094.12 0 .242.03.348.094l1.468.845c.217.125.35.357.35.607v4.2c0 .25.134.48.35.607l3.447 1.974c.108.064.243.064.35 0 .107-.06.174-.178.174-.303l.01-8.988zM42.652 17.07c0 .063-.033.12-.088.152l-1.99 1.148c-.055.03-.122.03-.176 0l-1.99-1.148c-.055-.03-.09-.09-.09-.15v-2.3c0-.062.034-.12.088-.152l1.99-1.15c.055-.03.122-.03.176 0l1.99 1.15c.055.03.088.09.088.152v2.3h.002zM43.19.045c-.11-.06-.24-.06-.348.004-.107.063-.173.178-.173.302v8.897c0 .087-.048.168-.123.212-.076.043-.17.043-.245 0L40.85 8.62c-.217-.125-.483-.125-.7 0l-5.8 3.348c-.217.125-.35.356-.35.606v6.695c0 .25.133.482.35.608l5.8 3.35c.216.124.483.124.7 0l5.8-3.35c.217-.125.35-.356.35-.607V2.583c0-.254-.137-.488-.36-.612L43.19.044zM63.65 14.852c.216-.126.35-.357.35-.607v-1.628c0-.25-.133-.482-.35-.608l-5.78-3.357c-.217-.126-.486-.127-.704 0l-5.815 3.356c-.216.125-.35.357-.35.608v6.714c0 .253.135.485.355.61l5.78 3.293c.212.122.473.123.688.004l3.495-1.944c.11-.062.18-.178.18-.305.002-.126-.066-.243-.175-.306l-5.852-3.36c-.108-.062-.175-.178-.175-.304v-2.104c0-.125.067-.242.176-.304l1.822-1.05c.108-.063.242-.063.35 0l1.823 1.05c.11.063.176.18.176.304v1.656c0 .125.068.242.177.304.11.063.243.062.352 0l3.48-2.024z"/></g><g class="is-color" fill="#7FBD42"><path d="M23.15 8.618c.216-.125.483-.125.7 0l5.8 3.347c.216.125.35.356.35.606v6.7c0 .25-.134.48-.35.607l-5.8 3.35c-.217.125-.484.125-.7 0l-5.8-3.35c-.216-.125-.35-.356-.35-.606v-6.7c0-.25.134-.48.35-.606l5.8-3.346zM75.5 23.058c-.197 0-.393-.05-.564-.15l-1.794-1.062c-.268-.15-.137-.203-.05-.234.358-.124.43-.153.812-.37.04-.02.092-.013.133.01l1.378.82c.05.027.12.027.166 0l5.373-3.102c.05-.03.082-.086.082-.145v-6.2c0-.06-.032-.116-.083-.147l-5.37-3.098c-.05-.03-.116-.03-.165 0l-5.368 3.1c-.053.03-.086.087-.086.146v6.2c0 .058.033.115.085.143l1.47.85c.8.398 1.288-.072 1.288-.544v-6.12c0-.088.07-.156.156-.156h.68c.086 0 .157.068.157.155v6.12c0 1.067-.58 1.678-1.59 1.678-.31 0-.555 0-1.237-.336l-1.41-.81c-.348-.202-.563-.578-.563-.98v-6.2c0-.403.215-.78.563-.98l5.372-3.103c.34-.192.792-.192 1.13 0l5.37 3.104c.35.2.565.576.565.978v6.2c0 .402-.216.777-.564.98l-5.37 3.1c-.173.1-.368.152-.567.152"/><path d="M77.158 18.787c-2.35 0-2.843-1.08-2.843-1.984 0-.086.07-.155.155-.155h.695c.078 0 .142.056.154.132.104.707.417 1.064 1.838 1.064 1.132 0 1.613-.256 1.613-.856 0-.346-.135-.603-1.894-.775-1.47-.145-2.38-.47-2.38-1.646 0-1.084.915-1.73 2.446-1.73 1.72 0 2.572.597 2.68 1.88.004.043-.012.086-.04.12-.03.03-.07.05-.115.05h-.697c-.072 0-.136-.052-.15-.122-.168-.744-.575-.982-1.68-.982-1.235 0-1.378.43-1.378.753 0 .39.17.504 1.838.725 1.65.22 2.435.528 2.435 1.688 0 1.168-.975 1.84-2.677 1.84M57.433 14.537c.042-.024.093-.024.135 0l1.116.644c.042.025.067.07.067.118v1.29c0 .047-.025.092-.066.116l-1.116.644c-.042.024-.093.024-.135 0l-1.115-.644c-.042-.024-.067-.07-.067-.117v-1.29c0-.047.027-.092.068-.116l1.115-.643z"/></g></g></svg>