<?xml version="1.0" encoding="UTF-8" standalone="no"?>
<svg width="80px" height="24px" viewBox="0 0 80 24" version="1.1" xmlns="http://www.w3.org/2000/svg" xmlns:xlink="http://www.w3.org/1999/xlink">
    <!-- Generator: Sketch 3.7.1 (28215) - http://www.bohemiancoding.com/sketch -->
    <title>aboutme</title>
    <desc>Created with Sketch.</desc>
    <defs></defs>
    <g id="svg" stroke="none" stroke-width="1" fill="none" fill-rule="evenodd">
        <g id="logos" fill="#044A75">
            <g id="About.me" transform="translate(0.000000, 5.000000)">
                <g id="is-color">
                    <path d="M6.681,11.484 L6.681,9.959 C6.166,9.278 5.237,8.928 4.309,8.928 C3.092,8.928 2.164,9.649 2.164,10.722 C2.164,11.815 3.092,12.516 4.309,12.516 C5.238,12.516 6.166,12.165 6.681,11.484 L6.681,11.484 L6.681,11.484 Z M6.681,13.752 L6.681,12.66 C5.939,13.526 4.764,14 3.444,14 C1.835,14 0,12.886 0,10.701 C0,8.392 1.815,7.443 3.444,7.443 C4.805,7.443 5.939,7.876 6.681,8.722 L6.681,7.237 C6.681,6.083 5.712,5.382 4.35,5.382 C3.237,5.382 2.247,5.794 1.401,6.661 L0.493,5.156 C1.65,4.041 3.093,3.546 4.681,3.546 C6.908,3.546 8.847,4.474 8.847,7.133 L8.847,13.751 L6.681,13.751 L6.681,13.752 L6.681,13.752 Z" id="Fill-1"></path>
                    <path d="M14.995,12.082 C16.706,12.082 17.799,10.7 17.799,8.762 C17.799,6.845 16.706,5.463 14.995,5.463 C13.964,5.463 12.912,6.061 12.417,6.803 L12.417,10.762 C12.912,11.505 13.964,12.082 14.995,12.082 L14.995,12.082 L14.995,12.082 Z M10.252,13.752 L10.252,0 L12.417,0 L12.417,5.175 C13.221,4.103 14.376,3.546 15.613,3.546 C18.19,3.546 20.047,5.546 20.047,8.762 C20.047,12.061 18.17,13.999 15.613,13.999 C14.334,13.999 13.18,13.38 12.417,12.391 L12.417,13.751 L10.252,13.751 L10.252,13.752 L10.252,13.752 Z" id="Fill-3"></path>
                    <path d="M29.216,8.763 C29.216,7.01 28.206,5.464 26.35,5.464 C24.515,5.464 23.484,7.01 23.484,8.763 C23.484,10.536 24.515,12.083 26.35,12.083 C28.206,12.082 29.216,10.536 29.216,8.763 M21.236,8.763 C21.236,5.897 23.174,3.547 26.35,3.547 C29.525,3.547 31.464,5.897 31.464,8.763 C31.464,11.608 29.525,14 26.35,14 C23.174,14 21.236,11.608 21.236,8.763" id="Fill-5"></path>
                    <path d="M39.394,13.752 L39.394,12.433 C38.693,13.216 37.456,14 35.889,14 C33.744,14 32.672,12.866 32.672,10.845 L32.672,3.794 L34.837,3.794 L34.837,10.042 C34.837,11.588 35.621,12.083 36.858,12.083 C37.951,12.083 38.899,11.444 39.394,10.784 L39.394,3.794 L41.559,3.794 L41.559,13.753 L39.394,13.753 L39.394,13.752 Z" id="Fill-7"></path>
                    <path d="M44.618,11.423 L44.618,5.67 L42.968,5.67 L42.968,3.794 L44.618,3.794 L44.618,1.072 L46.783,1.072 L46.783,3.794 L48.804,3.794 L48.804,5.671 L46.783,5.671 L46.783,10.887 C46.783,11.567 47.113,12.083 47.732,12.083 C48.144,12.083 48.515,11.897 48.68,11.712 L49.196,13.362 C48.804,13.711 48.165,14 47.175,14 C45.484,14 44.618,13.092 44.618,11.423" id="Fill-9"></path>
                    <path d="M50.233,12.516 C50.233,11.753 50.893,11.094 51.676,11.094 C52.46,11.094 53.12,11.753 53.12,12.516 C53.12,13.299 52.46,13.98 51.676,13.98 C50.893,13.979 50.233,13.298 50.233,12.516" id="Fill-11"></path>
                    <path d="M66.444,13.752 L66.444,7.257 C66.444,6.185 65.97,5.463 64.794,5.463 C63.825,5.463 62.917,6.123 62.484,6.783 L62.484,13.752 L60.319,13.752 L60.319,7.257 C60.319,6.185 59.865,5.463 58.69,5.463 C57.721,5.463 56.834,6.143 56.38,6.783 L56.38,13.752 L54.215,13.752 L54.215,3.794 L56.38,3.794 L56.38,5.134 C56.814,4.536 58.113,3.546 59.639,3.546 C61.123,3.546 62.031,4.288 62.361,5.36 C62.918,4.473 64.238,3.546 65.742,3.546 C67.557,3.546 68.609,4.536 68.609,6.556 L68.609,13.752 L66.444,13.752" id="Fill-13"></path>
                    <path d="M74.849,5.32 C73.014,5.32 72.147,6.743 72.065,7.938 L77.674,7.938 C77.612,6.763 76.808,5.32 74.849,5.32 M69.817,8.763 C69.817,5.876 71.921,3.547 74.869,3.547 C77.859,3.547 79.757,5.815 79.757,8.949 L79.757,9.485 L72.085,9.485 C72.25,10.97 73.364,12.227 75.24,12.227 C76.23,12.227 77.364,11.835 78.086,11.113 L79.075,12.536 C78.066,13.485 76.601,14 75.035,14 C72.024,14 69.817,11.917 69.817,8.763" id="Fill-15"></path>
                </g>
            </g>
        </g>
    </g>
</svg>