<?xml version="1.0" encoding="UTF-8" standalone="no"?>
<svg width="24px" height="24px" viewBox="0 0 24 24" version="1.1" xmlns="http://www.w3.org/2000/svg" xmlns:xlink="http://www.w3.org/1999/xlink">
    <!-- Generator: Sketch 3.7.1 (28215) - http://www.bohemiancoding.com/sketch -->
    <title>aboutme-square</title>
    <desc>Created with Sketch.</desc>
    <defs></defs>
    <g id="svg" stroke="none" stroke-width="1" fill="none" fill-rule="evenodd">
        <g id="logos" transform="translate(-100.000000, 0.000000)">
            <g id="About.me" transform="translate(100.000000, 0.000000)">
                <g id="is-color" fill="#044A75">
                    <rect id="square" x="0" y="0" width="24" height="24" rx="2"></rect>
                </g>
                <g id="is-white" transform="translate(4.000000, 8.000000)" fill="#FFFFFF">
                    <path d="M7.7998125,7.0199375 L7.7998125,3.2990625 C7.7998125,2.6615625 7.5171875,2.295 6.925375,2.295 C6.394125,2.295 6.03925,2.67325 5.8023125,2.94525 L5.8023125,7.0199375 L4.267,7.0199375 L4.267,3.2990625 C4.267,2.6615625 3.995,2.295 3.40425,2.295 C2.873,2.295 2.505375,2.67325 2.2811875,2.94525 L2.2811875,7.0199375 L0.7448125,7.0199375 L0.7448125,1.081625 L2.2811875,1.081625 L2.2811875,1.8349375 C2.5415,1.527875 3.13225,1.00725 4.0534375,1.00725 C4.8694375,1.00725 5.4240625,1.3504375 5.6726875,2.0474375 C6.0148125,1.55125 6.6523125,1.00725 7.575625,1.00725 C8.6859375,1.00725 9.3361875,1.6691875 9.3361875,2.94525 L9.3361875,7.0199375 L7.7998125,7.0199375" id="Fill-2"></path>
                    <path d="M13.5203125,2.152625 C12.6214375,2.152625 12.12525,2.8145625 12.0200625,3.536 L15.03225,3.536 C14.9504375,2.8506875 14.4659375,2.152625 13.5203125,2.152625 L13.5203125,2.152625 Z M12.042375,4.5166875 C12.1964375,5.2731875 12.82225,5.8044375 13.6966875,5.8044375 C14.1695,5.8044375 14.8548125,5.6280625 15.2575,5.2136875 L16.024625,6.100875 C15.3286875,6.834 14.2874375,7.03375 13.57875,7.03375 C11.85325,7.03375 10.506,5.7938125 10.506,4.0205 C10.506,2.3661875 11.7459375,1.00725 13.495875,1.00725 C15.18525,1.00725 16.4379375,2.3066875 16.4379375,4.0205 L16.4379375,4.5166875 L12.042375,4.5166875 Z" id="Fill-4"></path>
                </g>
            </g>
        </g>
    </g>
</svg>