<?xml version="1.0" encoding="UTF-8" standalone="no"?>
<svg width="24px" height="24px" viewBox="0 0 24 24" version="1.1" xmlns="http://www.w3.org/2000/svg" xmlns:xlink="http://www.w3.org/1999/xlink">
    <!-- Generator: Sketch 3.7.1 (28215) - http://www.bohemiancoding.com/sketch -->
    <title>behance-square</title>
    <desc>Created with Sketch.</desc>
    <defs></defs>
    <g id="svg" stroke="none" stroke-width="1" fill="none" fill-rule="evenodd">
        <g id="logos" transform="translate(-100.000000, -24.000000)" fill="#1769FF">
            <g id="Behance" transform="translate(100.000000, 29.000000)">
                <g id="is-color">
                    <path d="M6.534,11.906 C6.843,11.906 7.14,11.878 7.418,11.816 C7.702,11.755 7.951,11.656 8.163,11.512 C8.373,11.373 8.55,11.182 8.677,10.94 C8.805,10.7 8.866,10.387 8.866,10.01 C8.866,9.271 8.658,8.745 8.244,8.427 C7.829,8.112 7.277,7.956 6.597,7.956 L3.161,7.956 L3.161,11.907 L6.534,11.907 L6.534,11.906 L6.534,11.906 Z M6.357,5.798 C6.916,5.798 7.38,5.665 7.747,5.396 C8.111,5.13 8.288,4.691 8.288,4.09 C8.288,3.756 8.228,3.48 8.111,3.265 C7.989,3.052 7.828,2.885 7.626,2.767 C7.423,2.644 7.194,2.56 6.929,2.515 C6.668,2.464 6.396,2.445 6.116,2.445 L3.161,2.445 L3.161,5.798 L6.357,5.798 L6.357,5.798 Z M6.765,0 C7.452,0 8.072,0.059 8.638,0.182 C9.201,0.301 9.682,0.5 10.087,0.774 C10.487,1.048 10.799,1.411 11.025,1.869 C11.243,2.32 11.352,2.885 11.352,3.553 C11.352,4.276 11.189,4.879 10.861,5.362 C10.531,5.844 10.045,6.238 9.397,6.544 C10.28,6.798 10.934,7.246 11.368,7.881 C11.803,8.52 12.017,9.287 12.017,10.185 C12.017,10.912 11.877,11.539 11.598,12.065 C11.318,12.599 10.936,13.031 10.464,13.365 C9.988,13.701 9.442,13.949 8.831,14.109 C8.226,14.269 7.599,14.351 6.956,14.351 L0,14.351 L0,0 L6.765,0 L6.765,0 Z" id="Fill-1"></path>
                    <path d="M20.35,6.399 C20.011,6.024 19.437,5.821 18.736,5.821 C18.28,5.821 17.903,5.897 17.601,6.054 C17.305,6.208 17.064,6.4 16.877,6.626 C16.693,6.856 16.568,7.099 16.493,7.358 C16.421,7.611 16.376,7.84 16.365,8.043 L21.008,8.043 C20.939,7.315 20.691,6.777 20.35,6.399 M17.07,11.858 C17.499,12.275 18.116,12.485 18.917,12.485 C19.491,12.485 19.988,12.339 20.406,12.049 C20.82,11.759 21.071,11.449 21.169,11.128 L23.683,11.128 C23.277,12.379 22.665,13.271 21.828,13.809 C21.003,14.349 19.994,14.617 18.82,14.617 C18.002,14.617 17.265,14.485 16.604,14.224 C15.944,13.96 15.39,13.589 14.927,13.107 C14.475,12.622 14.123,12.049 13.871,11.375 C13.623,10.706 13.498,9.964 13.498,9.161 C13.498,8.384 13.628,7.658 13.883,6.987 C14.142,6.314 14.501,5.733 14.969,5.246 C15.444,4.756 16.001,4.37 16.654,4.087 C17.306,3.806 18.024,3.664 18.821,3.664 C19.699,3.664 20.47,3.834 21.13,4.179 C21.788,4.519 22.327,4.979 22.751,5.555 C23.174,6.131 23.476,6.789 23.663,7.527 C23.851,8.263 23.917,9.033 23.862,9.84 L16.365,9.84 C16.365,10.663 16.642,11.44 17.07,11.858" id="Fill-3"></path>
                    <polygon id="Fill-5" points="15.781 2.23 21.596 2.23 21.596 0.814 15.781 0.814"></polygon>
                </g>
            </g>
        </g>
    </g>
</svg>