<?xml version="1.0" encoding="UTF-8" standalone="no"?>
<svg width="82px" height="24px" viewBox="0 0 82 24" version="1.1" xmlns="http://www.w3.org/2000/svg" xmlns:xlink="http://www.w3.org/1999/xlink">
    <!-- Generator: Sketch 3.7.1 (28215) - http://www.bohemiancoding.com/sketch -->
    <title>behance</title>
    <desc>Created with Sketch.</desc>
    <defs></defs>
    <g id="svg" stroke="none" stroke-width="1" fill="none" fill-rule="evenodd">
        <g id="logos" transform="translate(0.000000, -24.000000)" fill="#1769FF">
            <g id="Behance" transform="translate(0.000000, 29.000000)">
                <g id="is-color">
                    <path d="M6.534,11.906 C6.843,11.906 7.14,11.878 7.418,11.816 C7.702,11.755 7.951,11.656 8.163,11.512 C8.373,11.373 8.55,11.182 8.677,10.94 C8.805,10.7 8.866,10.387 8.866,10.01 C8.866,9.271 8.658,8.745 8.244,8.427 C7.829,8.112 7.277,7.956 6.597,7.956 L3.161,7.956 L3.161,11.907 L6.534,11.907 L6.534,11.906 L6.534,11.906 Z M6.357,5.798 C6.916,5.798 7.38,5.665 7.747,5.396 C8.111,5.13 8.288,4.691 8.288,4.09 C8.288,3.756 8.228,3.48 8.111,3.265 C7.989,3.052 7.828,2.885 7.626,2.767 C7.423,2.644 7.194,2.56 6.929,2.515 C6.668,2.464 6.396,2.445 6.116,2.445 L3.161,2.445 L3.161,5.798 L6.357,5.798 L6.357,5.798 Z M6.765,0 C7.452,0 8.072,0.059 8.638,0.182 C9.201,0.301 9.682,0.5 10.087,0.774 C10.487,1.048 10.799,1.411 11.025,1.869 C11.243,2.32 11.352,2.885 11.352,3.553 C11.352,4.276 11.189,4.879 10.861,5.362 C10.531,5.844 10.045,6.238 9.397,6.544 C10.28,6.798 10.934,7.246 11.368,7.881 C11.803,8.52 12.017,9.287 12.017,10.185 C12.017,10.912 11.877,11.539 11.598,12.065 C11.318,12.599 10.936,13.031 10.464,13.365 C9.988,13.701 9.442,13.949 8.831,14.109 C8.226,14.269 7.599,14.351 6.956,14.351 L0,14.351 L0,0 L6.765,0 L6.765,0 Z" id="Fill-1"></path>
                    <path d="M20.35,6.399 C20.011,6.024 19.437,5.821 18.736,5.821 C18.28,5.821 17.903,5.897 17.601,6.054 C17.305,6.208 17.064,6.4 16.877,6.626 C16.693,6.856 16.568,7.099 16.493,7.358 C16.421,7.611 16.376,7.84 16.365,8.043 L21.008,8.043 C20.939,7.315 20.691,6.777 20.35,6.399 M17.07,11.858 C17.499,12.275 18.116,12.485 18.917,12.485 C19.491,12.485 19.988,12.339 20.406,12.049 C20.82,11.759 21.071,11.449 21.169,11.128 L23.683,11.128 C23.277,12.379 22.665,13.271 21.828,13.809 C21.003,14.349 19.994,14.617 18.82,14.617 C18.002,14.617 17.265,14.485 16.604,14.224 C15.944,13.96 15.39,13.589 14.927,13.107 C14.475,12.622 14.123,12.049 13.871,11.375 C13.623,10.706 13.498,9.964 13.498,9.161 C13.498,8.384 13.628,7.658 13.883,6.987 C14.142,6.314 14.501,5.733 14.969,5.246 C15.444,4.756 16.001,4.37 16.654,4.087 C17.306,3.806 18.024,3.664 18.821,3.664 C19.699,3.664 20.47,3.834 21.13,4.179 C21.788,4.519 22.327,4.979 22.751,5.555 C23.174,6.131 23.476,6.789 23.663,7.527 C23.851,8.263 23.917,9.033 23.862,9.84 L16.365,9.84 C16.365,10.663 16.642,11.44 17.07,11.858" id="Fill-3"></path>
                    <path d="M28.526,0 L28.526,5.411 L28.591,5.411 C28.955,4.809 29.413,4.371 29.975,4.1 C30.537,3.827 31.086,3.692 31.62,3.692 C32.382,3.692 33.006,3.792 33.495,3.999 C33.982,4.21 34.369,4.494 34.651,4.864 C34.929,5.231 35.125,5.681 35.24,6.212 C35.353,6.74 35.411,7.323 35.411,7.967 L35.411,14.352 L32.544,14.352 L32.544,8.485 C32.544,7.629 32.409,6.986 32.144,6.565 C31.878,6.144 31.405,5.933 30.722,5.933 C29.95,5.933 29.393,6.167 29.047,6.628 C28.695,7.09 28.525,7.85 28.525,8.907 L28.525,14.352 L25.658,14.352 L25.658,0 L28.526,0 Z" id="Fill-5"></path>
                    <path d="M43.591,9.523 C43.414,9.582 43.215,9.632 43.013,9.675 C42.804,9.715 42.586,9.747 42.36,9.775 C42.134,9.802 41.904,9.833 41.681,9.873 C41.466,9.916 41.251,9.968 41.05,10.036 C40.843,10.103 40.661,10.192 40.513,10.306 C40.358,10.421 40.234,10.565 40.14,10.738 C40.049,10.911 40,11.136 40,11.402 C40,11.655 40.049,11.87 40.14,12.046 C40.234,12.221 40.359,12.357 40.52,12.457 C40.682,12.558 40.871,12.629 41.081,12.668 C41.295,12.711 41.516,12.726 41.742,12.726 C42.304,12.726 42.735,12.633 43.044,12.447 C43.35,12.259 43.58,12.034 43.725,11.773 C43.872,11.511 43.961,11.248 43.991,10.982 C44.028,10.714 44.045,10.498 44.045,10.336 L44.045,9.269 C43.921,9.379 43.774,9.463 43.591,9.523 M37.973,5.479 C38.263,5.037 38.637,4.679 39.094,4.412 C39.55,4.142 40.058,3.951 40.631,3.838 C41.2,3.721 41.77,3.665 42.349,3.665 C42.869,3.665 43.395,3.702 43.938,3.776 C44.471,3.85 44.96,3.994 45.402,4.209 C45.844,4.425 46.204,4.721 46.483,5.108 C46.765,5.484 46.909,5.994 46.909,6.626 L46.909,12.041 C46.909,12.512 46.937,12.959 46.987,13.388 C47.045,13.82 47.19,14.144 47.329,14.356 L44.413,14.349 C44.327,14.224 44.256,14.03 44.224,13.861 C44.19,13.695 44.166,13.525 44.153,13.349 C43.7,13.819 43.166,14.149 42.547,14.338 C41.931,14.524 41.304,14.617 40.659,14.617 C40.165,14.617 39.706,14.555 39.276,14.434 C38.851,14.313 38.475,14.126 38.156,13.872 C37.834,13.614 37.586,13.294 37.404,12.905 C37.223,12.515 37.131,12.051 37.131,11.515 C37.131,10.923 37.237,10.436 37.447,10.055 C37.653,9.674 37.918,9.367 38.249,9.14 C38.576,8.911 38.951,8.739 39.375,8.626 C39.796,8.513 40.222,8.42 40.646,8.354 C41.076,8.288 41.494,8.234 41.913,8.193 C42.332,8.152 42.696,8.093 43.018,8.012 C43.338,7.932 43.595,7.812 43.783,7.66 C43.968,7.505 44.056,7.282 44.043,6.984 C44.043,6.677 43.989,6.432 43.889,6.249 C43.79,6.069 43.655,5.929 43.494,5.828 C43.324,5.727 43.135,5.661 42.915,5.625 C42.694,5.593 42.458,5.575 42.206,5.575 C41.649,5.575 41.206,5.699 40.893,5.938 C40.57,6.184 40.385,6.588 40.328,7.153 L37.464,7.153 C37.509,6.478 37.674,5.922 37.973,5.479" id="Fill-7"></path>
                    <path d="M51.627,3.962 L51.627,5.41 L51.691,5.41 C52.052,4.808 52.518,4.37 53.096,4.099 C53.67,3.826 54.265,3.691 54.867,3.691 C55.633,3.691 56.262,3.791 56.747,3.998 C57.241,4.209 57.625,4.493 57.903,4.863 C58.189,5.23 58.385,5.68 58.499,6.211 C58.617,6.739 58.673,7.322 58.673,7.966 L58.673,14.351 L55.803,14.351 L55.803,8.484 C55.803,7.628 55.669,6.985 55.402,6.564 C55.131,6.143 54.663,5.873 53.975,5.873 C53.199,5.873 52.633,6.166 52.286,6.626 C51.936,7.088 51.763,7.848 51.763,8.905 L51.763,14.35 L48.925,14.35 L48.925,3.962 L51.627,3.962 Z" id="Fill-9"></path>
                    <path d="M65.375,5.821 C64.917,5.821 64.537,5.922 64.234,6.133 C63.922,6.343 63.667,6.609 63.473,6.938 C63.279,7.265 63.145,7.628 63.061,8.024 C62.982,8.42 62.94,8.812 62.94,9.203 C62.94,9.579 62.981,9.962 63.061,10.352 C63.145,10.741 63.272,11.09 63.452,11.409 C63.637,11.722 63.88,11.98 64.189,12.182 C64.496,12.385 64.869,12.485 65.312,12.485 C65.999,12.485 66.524,12.293 66.893,11.912 C67.261,11.531 67.489,11.018 67.584,10.375 L70.342,10.375 C70.151,11.754 69.614,12.805 68.734,13.532 C67.847,14.253 66.713,14.618 65.333,14.618 C64.553,14.618 63.844,14.486 63.189,14.225 C62.538,13.961 61.982,13.597 61.526,13.128 C61.07,12.657 60.716,12.097 60.456,11.447 C60.203,10.796 60.075,10.081 60.075,9.304 C60.075,8.5 60.194,7.75 60.428,7.058 C60.663,6.368 61.007,5.771 61.467,5.269 C61.923,4.764 62.48,4.372 63.141,4.09 C63.799,3.809 64.548,3.667 65.392,3.667 C66.008,3.667 66.601,3.751 67.172,3.907 C67.742,4.066 68.252,4.312 68.701,4.642 C69.149,4.969 69.515,5.377 69.799,5.863 C70.077,6.35 70.236,6.933 70.28,7.599 L67.482,7.599 C67.298,6.412 66.594,5.821 65.375,5.821" id="Fill-11"></path>
                    <polygon id="Fill-13" points="15.781 2.23 21.596 2.23 21.596 0.814 15.781 0.814"></polygon>
                    <path d="M78.472,6.399 C78.128,6.024 77.549,5.821 76.857,5.821 C76.402,5.821 76.022,5.897 75.716,6.054 C75.42,6.208 75.15,6.4 74.968,6.626 C74.787,6.856 74.658,7.099 74.581,7.358 C74.513,7.611 74.466,7.84 74.454,8.043 L79.133,8.043 C79.055,7.315 78.811,6.777 78.472,6.399 M75.158,11.858 C75.585,12.275 76.232,12.485 77.038,12.485 C77.614,12.485 78.11,12.339 78.525,12.049 C78.94,11.759 79.196,11.449 79.288,11.128 L81.801,11.128 C81.4,12.379 80.781,13.271 79.952,13.809 C79.122,14.349 78.119,14.617 76.939,14.617 C76.119,14.617 75.379,14.485 74.723,14.224 C74.063,13.96 73.511,13.589 73.047,13.107 C72.589,12.622 72.239,12.049 71.99,11.375 C71.742,10.706 71.619,9.964 71.619,9.161 C71.619,8.384 71.745,7.658 72,6.987 C72.257,6.314 72.622,5.733 73.09,5.246 C73.566,4.756 74.12,4.37 74.769,4.087 C75.422,3.806 76.147,3.664 76.938,3.664 C77.817,3.664 78.59,3.834 79.242,4.179 C79.903,4.519 80.445,4.979 80.865,5.555 C81.288,6.131 81.592,6.789 81.779,7.527 C81.964,8.263 82.034,9.033 81.981,9.84 L74.451,9.84 C74.453,10.663 74.727,11.44 75.158,11.858" id="Fill-15"></path>
                </g>
            </g>
        </g>
    </g>
</svg>