<?xml version="1.0" encoding="UTF-8" standalone="no"?>
<svg width="64px" height="24px" viewBox="0 0 64 24" version="1.1" xmlns="http://www.w3.org/2000/svg" xmlns:xlink="http://www.w3.org/1999/xlink">
    <!-- Generator: Sketch 3.7.1 (28215) - http://www.bohemiancoding.com/sketch -->
    <title>dag</title>
    <desc>Created with Sketch.</desc>
    <defs></defs>
    <g id="svg" stroke="none" stroke-width="1" fill="none" fill-rule="evenodd">
        <g id="logos" transform="translate(0.000000, -48.000000)" fill="#000000">
            <g id="DAG" transform="translate(0.000000, 48.000000)">
                <g id="is-black">
                    <path d="M4.224,4.05 L4.224,19.947 L8.037,19.947 C12.087,19.947 15.529,17.474 15.529,11.997 C15.529,6.804 12.132,4.047 8.037,4.047 L4.224,4.047 L4.224,4.05 Z M19.752,12 C19.752,19.426 14.525,23.673 8.036,23.673 L0,23.673 L0,0.327 L8.037,0.327 C14.525,0.327 19.752,4.574 19.752,12 L19.752,12 Z" id="Fill-2"></path>
                    <path d="M22.3281,0.3273 L22.3281,3.4073 L27.4471,4.0523 L19.7371,23.6733 L23.9191,23.6733 L25.7041,19.0023 L35.7451,19.0023 L37.5591,23.6733 L37.5591,23.6703 L42.1041,23.6703 L34.3281,4.0493 L39.4021,3.4083 L39.4021,0.3273 L22.3281,0.3273 Z M30.6901,5.2473 L30.7561,5.2473 L34.3271,15.2783 L27.1201,15.2783 L30.6901,5.2473 Z" id="Fill-1"></path>
                    <path d="M52.506,11.031 L63.2,11.031 L63.2,19.329 C61.153,22.246 57.754,24 53.638,24 C46.625,24 41.638,19.363 41.638,12 C41.638,4.64 46.496,0 53.419,0 C57.753,0 61.456,2.144 63.199,5.935 L59.344,7.526 C58.299,5.219 56.208,3.726 53.419,3.726 C48.476,3.726 45.861,7.297 45.861,12.002 C45.861,16.705 48.605,20.268 53.637,20.268 C55.836,20.268 57.795,19.528 58.993,18.264 L58.993,14.76 L52.505,14.76 L52.505,11.031 L52.506,11.031 Z" id="Fill-4"></path>
                </g>
            </g>
        </g>
    </g>
</svg>