<?xml version="1.0" encoding="UTF-8" standalone="no"?>
<svg width="75px" height="24px" viewBox="0 0 75 24" version="1.1" xmlns="http://www.w3.org/2000/svg" xmlns:xlink="http://www.w3.org/1999/xlink">
    <!-- Generator: Sketch 3.7.1 (28215) - http://www.bohemiancoding.com/sketch -->
    <title>eventbrite</title>
    <desc>Created with Sketch.</desc>
    <defs></defs>
    <g id="svg" stroke="none" stroke-width="1" fill="none" fill-rule="evenodd">
        <g id="logos" transform="translate(0.000000, -72.000000)">
            <g id="Eventbrite" transform="translate(0.000000, 72.000000)">
                <g id="is-color" fill="#FF8000">
                    <path d="M2.697,24 C1.186,24 0,22.471 0,20.521 L0,3.48 C0,1.528 1.184,0 2.697,0 L2.787,0.002 L72.192,2.966 C73.741,3.028 75,4.284 75,5.763 L75,18.238 C75,19.716 73.741,20.97 72.192,21.034 L2.785,23.998 L2.697,24 Z" id="Fill-1"></path>
                </g>
                <g id="is-white" transform="translate(4.000000, 6.000000)" fill="#FFFFFF">
                    <path d="M0.373,9.347 L1.971,1.754 C2.127,1.017 2.581,0.677 3.276,0.677 L8.338,0.677 C8.919,0.677 9.231,0.904 9.231,1.3 C9.231,1.527 9.104,2.037 8.876,2.264 C8.72,2.434 8.536,2.491 8.068,2.491 L3.914,2.491 L3.427,4.728 L6.532,4.728 C7.07,4.728 7.354,4.955 7.354,5.309 C7.354,5.522 7.255,5.99 7.042,6.217 C6.9,6.359 6.716,6.444 6.291,6.444 L3.057,6.444 L2.556,8.866 L6.696,8.866 C7.278,8.866 7.575,9.093 7.575,9.476 C7.575,9.717 7.462,10.213 7.235,10.454 C7.079,10.61 6.88,10.681 6.426,10.681 L1.422,10.681 C0.557,10.68 0.175,10.24 0.373,9.347" id="Fill-3"></path>
                    <path d="M9.921,10.014 L9.354,6.072 C9.212,4.994 8.886,4.71 8.318,4.668 C8.29,4.668 8.418,3.647 9.566,3.647 C9.991,3.647 10.289,3.761 10.559,4.03 C10.942,4.413 11.112,5.037 11.183,5.986 L11.438,8.566 L14.245,3.66 C14.259,3.632 15.621,3.703 15.621,4.639 C15.621,4.951 15.507,5.192 15.195,5.66 L12.275,10.155 C11.949,10.666 11.41,10.751 11.027,10.751 C10.517,10.752 9.992,10.567 9.921,10.014" id="Fill-5"></path>
                    <path d="M17.621,6.612 C17.99,6.64 18.315,6.654 18.613,6.654 C20.541,6.654 21.08,6.215 21.08,5.676 C21.08,5.308 20.697,4.939 19.946,4.939 C18.896,4.938 18.032,5.661 17.621,6.612 M15.678,7.901 C15.678,5.392 17.606,3.591 20.031,3.591 C21.788,3.591 22.767,4.413 22.767,5.618 C22.767,7.036 21.86,7.887 18.783,7.887 C18.357,7.887 17.89,7.859 17.365,7.829 L17.365,7.872 C17.365,8.836 17.961,9.432 19.052,9.432 C19.974,9.432 20.641,9.02 21.094,8.425 C21.122,8.383 21.945,8.525 21.945,9.177 C21.945,9.545 21.832,9.744 21.562,10.027 C21.037,10.538 20.215,10.849 19.024,10.849 C16.755,10.85 15.678,9.603 15.678,7.901" id="Fill-7"></path>
                    <path d="M25.972,4.938 C26.525,4.102 27.333,3.591 28.353,3.591 C29.771,3.591 30.593,4.513 30.593,5.831 C30.593,6.327 30.423,7.007 30.181,7.859 C29.998,8.553 29.855,9.106 29.855,9.389 C29.855,9.786 30.039,9.942 30.422,9.999 C30.451,9.999 30.309,10.821 29.217,10.821 C28.282,10.821 27.842,10.34 27.842,9.588 C27.842,9.191 27.969,8.666 28.182,7.887 C28.367,7.235 28.494,6.695 28.494,6.398 C28.494,5.689 28.097,5.264 27.374,5.264 C26.679,5.264 26.226,5.59 25.786,6.27 L25.048,9.786 C24.892,10.495 24.637,10.737 24.127,10.737 L23.915,10.737 C23.375,10.737 22.894,10.524 23.05,9.786 L24.311,3.832 C24.325,3.789 24.552,3.705 24.864,3.705 C25.433,3.705 25.986,4.017 25.972,4.938" id="Fill-9"></path>
                    <path d="M32.097,8.242 L32.706,5.322 L32.366,5.322 C31.911,5.322 31.642,5.123 31.642,4.797 C31.642,4.598 31.727,4.173 31.926,3.96 C32.068,3.833 32.223,3.762 32.621,3.762 L33.031,3.762 L33.116,3.365 C33.315,2.344 33.726,1.919 34.605,1.919 C35.031,1.919 35.357,2.089 35.343,2.16 L35.003,3.762 L36.166,3.762 C36.647,3.762 36.918,3.975 36.918,4.287 C36.918,4.485 36.832,4.925 36.619,5.123 C36.491,5.251 36.321,5.322 35.938,5.322 L34.648,5.322 L34.039,8.157 C33.855,8.993 34.138,9.348 34.691,9.348 C35.046,9.348 35.358,9.163 35.542,8.994 C35.599,8.952 35.868,9.179 35.868,9.604 C35.868,9.901 35.755,10.157 35.527,10.383 C35.216,10.695 34.718,10.865 34.053,10.865 C32.465,10.865 31.743,9.915 32.097,8.242" id="Fill-11"></path>
                    <path d="M39.569,6.257 L39.356,7.25 C39.143,8.356 39.739,9.277 40.916,9.277 C42.177,9.277 42.872,8.058 42.872,6.81 C42.872,5.804 42.234,5.18 41.398,5.18 C40.661,5.179 39.995,5.619 39.569,6.257 M38.86,9.504 C38.591,10.397 38.151,10.738 37.372,10.738 C36.989,10.738 36.662,10.568 36.677,10.496 L38.543,1.656 C38.698,0.932 38.954,0.692 39.465,0.692 L39.691,0.692 C40.215,0.692 40.711,0.918 40.541,1.656 L39.894,4.741 C40.405,4.032 41.142,3.593 42.091,3.593 C43.58,3.593 44.813,4.656 44.813,6.556 C44.813,8.74 43.382,10.852 41.198,10.852 C40.178,10.85 39.285,10.354 38.86,9.504" id="Fill-13"></path>
                    <path d="M48.243,4.924 C48.668,4.088 49.305,3.591 50.114,3.591 C50.809,3.591 51.348,3.988 51.348,4.569 C51.348,5.548 50.483,5.859 50.453,5.831 C50.255,5.618 49.972,5.42 49.489,5.42 C48.596,5.42 48.029,6.412 47.717,7.872 L47.32,9.786 C47.165,10.495 46.91,10.737 46.399,10.737 L46.186,10.737 C45.647,10.737 45.166,10.524 45.321,9.786 L46.584,3.832 C46.598,3.789 46.825,3.705 47.137,3.705 C47.704,3.705 48.257,4.017 48.243,4.924" id="Fill-15"></path>
                    <path d="M52.902,1.839 C52.902,1.158 53.37,0.676 54.065,0.676 C54.774,0.676 55.17,1.031 55.17,1.541 C55.17,2.207 54.702,2.704 54.008,2.704 C53.298,2.704 52.902,2.349 52.902,1.839 M51.447,8.909 L52.355,4.669 C52.511,3.945 52.766,3.705 53.276,3.705 L53.489,3.705 C54.028,3.705 54.51,3.917 54.355,4.669 L53.433,8.965 C53.276,9.73 53.404,10.028 53.986,10.113 C54,10.127 53.886,10.822 52.823,10.822 C51.533,10.822 51.207,10.028 51.447,8.909" id="Fill-17"></path>
                    <path d="M55.786,8.242 L56.395,5.322 L56.055,5.322 C55.601,5.322 55.333,5.123 55.333,4.797 C55.333,4.598 55.417,4.173 55.616,3.96 C55.758,3.833 55.913,3.762 56.31,3.762 L56.721,3.762 L56.807,3.365 C57.005,2.344 57.415,1.919 58.295,1.919 C58.721,1.919 59.047,2.089 59.032,2.16 L58.692,3.762 L59.854,3.762 C60.336,3.762 60.606,3.975 60.606,4.287 C60.606,4.485 60.521,4.925 60.308,5.123 C60.18,5.251 60.01,5.322 59.627,5.322 L58.336,5.322 L57.727,8.157 C57.542,8.993 57.827,9.348 58.379,9.348 C58.733,9.348 59.046,9.163 59.229,8.994 C59.286,8.952 59.556,9.179 59.556,9.604 C59.556,9.901 59.442,10.157 59.214,10.383 C58.904,10.695 58.407,10.865 57.741,10.865 C56.155,10.865 55.432,9.915 55.786,8.242" id="Fill-19"></path>
                    <path d="M62.536,6.612 C62.904,6.64 63.23,6.654 63.528,6.654 C65.455,6.654 65.994,6.215 65.994,5.676 C65.994,5.308 65.611,4.939 64.86,4.939 C63.811,4.938 62.946,5.661 62.536,6.612 M60.593,7.901 C60.593,5.392 62.521,3.591 64.945,3.591 C66.704,3.591 67.682,4.413 67.682,5.618 C67.682,7.036 66.775,7.887 63.697,7.887 C63.272,7.887 62.805,7.859 62.28,7.829 L62.28,7.872 C62.28,8.836 62.875,9.432 63.966,9.432 C64.888,9.432 65.555,9.02 66.008,8.425 C66.037,8.383 66.86,8.525 66.86,9.177 C66.86,9.545 66.747,9.744 66.477,10.027 C65.952,10.538 65.129,10.849 63.939,10.849 C61.67,10.85 60.593,9.603 60.593,7.901" id="Fill-21"></path>
                </g>
            </g>
        </g>
    </g>
</svg>