<?xml version="1.0" encoding="UTF-8" standalone="no"?>
<svg width="24px" height="24px" viewBox="0 0 24 24" version="1.1" xmlns="http://www.w3.org/2000/svg" xmlns:xlink="http://www.w3.org/1999/xlink">
    <!-- Generator: Sketch 3.7.1 (28215) - http://www.bohemiancoding.com/sketch -->
    <title>github-square</title>
    <desc>Created with Sketch.</desc>
    <defs></defs>
    <g id="svg" stroke="none" stroke-width="1" fill="none" fill-rule="evenodd">
        <g id="logos" transform="translate(-100.000000, -120.000000)" fill="#000000">
            <g id="Github" transform="translate(100.000000, 120.000000)">
                <g id="is-black">
                    <path d="M11.999,1.94781361e-05 C5.373,1.94781361e-05 0,5.37301948 0,12.0010195 C0,17.3020195 3.438,21.8000195 8.207,23.3870195 C8.807,23.4970195 9.026,23.1270195 9.026,22.8090195 C9.026,22.5240195 9.016,21.7690195 9.01,20.7680195 C5.672,21.4930195 4.968,19.1590195 4.968,19.1590195 C4.422,17.7730195 3.636,17.4040195 3.636,17.4040195 C2.546,16.6590195 3.718,16.6750195 3.718,16.6750195 C4.922,16.7600195 5.556,17.9120195 5.556,17.9120195 C6.626,19.7460195 8.365,19.2160195 9.048,18.9090195 C9.157,18.1340195 9.467,17.6050195 9.81,17.3050195 C7.145,17.0020195 4.344,15.9730195 4.344,11.3740195 C4.344,10.0640195 4.812,8.99301948 5.579,8.15401948 C5.456,7.84901948 5.044,6.62901948 5.697,4.97701948 C5.697,4.97701948 6.705,4.65401948 8.997,6.20701948 C9.954,5.94101948 10.981,5.80801948 12.001,5.80301948 C13.02,5.80801948 14.047,5.94101948 15.005,6.20701948 C17.296,4.65401948 18.302,4.97701948 18.302,4.97701948 C18.957,6.62901948 18.545,7.84901948 18.421,8.15301948 C19.19,8.99201948 19.654,10.0630195 19.654,11.3730195 C19.654,15.9830195 16.848,16.9970195 14.175,17.2940195 C14.606,17.6640195 14.99,18.3970195 14.99,19.5160195 C14.99,21.1200195 14.975,22.4140195 14.975,22.8080195 C14.975,23.1290195 15.191,23.5020195 15.8,23.3850195 C20.565,21.7950195 24,17.3010195 24,12.0010195 C24,5.37301948 18.627,1.94781361e-05 11.999,1.94781361e-05" id="Page-1"></path>
                </g>
            </g>
        </g>
    </g>
</svg>