<?xml version="1.0" encoding="UTF-8" standalone="no"?>
<svg width="95px" height="24px" viewBox="0 0 95 24" version="1.1" xmlns="http://www.w3.org/2000/svg" xmlns:xlink="http://www.w3.org/1999/xlink">
    <!-- Generator: Sketch 3.7.1 (28215) - http://www.bohemiancoding.com/sketch -->
    <title>linkedin</title>
    <desc>Created with Sketch.</desc>
    <defs></defs>
    <g id="svg" stroke="none" stroke-width="1" fill="none" fill-rule="evenodd">
        <g id="logos" transform="translate(0.000000, -168.000000)">
            <g id="LinkedIn" transform="translate(0.000000, 168.000000)">
                <g id="is-black" transform="translate(0.000000, 3.000000)" fill="#000000">
                    <polygon id="Fill-1" points="0 0.5493 0 17.4513 10.556 17.4513 10.556 14.0343 3.701 14.0343 3.701 0.5493"></polygon>
                    <path d="M13.971,0.299 C15.11,0.299 16.035,1.224 16.035,2.363 C16.035,3.502 15.11,4.425 13.971,4.425 C12.833,4.425 11.908,3.503 11.908,2.363 C11.908,1.224 12.832,0.299 13.971,0.299 L13.971,0.299 Z M12.191,17.445 L15.749,17.445 L15.749,5.992 L12.191,5.992 L12.191,17.445 L12.191,17.445 Z" id="Fill-2"></path>
                    <polygon id="Fill-4" points="30.625 0.549 34.18 0.549 34.18 10.65 38.211 5.987 42.572 5.987 37.906 11.29 42.474 17.451 38.003 17.451 34.227 11.788 34.18 11.788 34.18 17.451 30.625 17.451"></polygon>
                    <path d="M17.718,5.995 L21.134,5.995 L21.134,7.559 L21.182,7.559 C21.656,6.659 22.818,5.709 24.55,5.709 C28.156,5.709 28.82,8.081 28.82,11.165 L28.82,17.445 L25.262,17.445 L25.262,11.877 C25.262,10.549 25.238,8.842 23.411,8.842 C21.561,8.842 21.277,10.288 21.277,11.782 L21.277,17.445 L17.719,17.445 L17.719,5.995 L17.718,5.995 Z" id="Fill-6"></path>
                    <path d="M53.074,15.462 C51.933,16.91 50.061,17.741 48.211,17.741 C44.653,17.741 41.806,15.369 41.806,11.691 C41.806,8.016 44.653,5.643 48.211,5.643 C51.533,5.643 53.619,8.016 53.619,11.691 L53.619,12.806 L45.365,12.806 C45.648,14.159 46.67,15.036 48.045,15.036 C49.209,15.036 49.99,14.444 50.583,13.637 L53.074,15.462 Z M50.061,10.388 C50.083,9.201 49.159,8.205 47.877,8.205 C46.313,8.205 45.459,9.273 45.364,10.388 L50.061,10.388 L50.061,10.388 Z" id="Fill-8"></path>
                    <path d="M67.154,17.444 L63.879,17.444 L63.879,15.924 L63.833,15.924 C63.285,16.755 61.911,17.727 60.298,17.727 C56.881,17.727 54.627,15.261 54.627,11.775 C54.627,8.571 56.62,5.631 59.894,5.631 C61.366,5.631 62.74,6.033 63.548,7.148 L63.594,7.148 L63.594,0.549 L67.155,0.549 L67.155,17.444 L67.154,17.444 Z M61.031,8.762 C59.253,8.762 58.184,9.949 58.184,11.679 C58.184,13.412 59.253,14.598 61.031,14.598 C62.812,14.598 63.878,13.412 63.878,11.679 C63.878,9.949 62.812,8.762 61.031,8.762 L61.031,8.762 Z" id="Fill-10"></path>
                </g>
                <g id="is-color" transform="translate(71.000000, 0.000000)" fill="#0077B5">
                    <rect id="Rectangle-3" x="0" y="0" width="24" height="24" rx="2"></rect>
                </g>
                <g id="is-white" transform="translate(74.000000, 3.000000)" fill="#FFFFFF">
                    <polygon id="Fill-14" points="0.557 17.45 4.12 17.45 4.12 5.997 0.557 5.997"></polygon>
                    <path d="M2.339,0.304 C3.478,0.304 4.402,1.229 4.402,2.368 C4.402,3.508 3.478,4.432 2.339,4.432 C1.196,4.432 0.274,3.507 0.274,2.368 C0.273,1.229 1.195,0.304 2.339,0.304" id="Fill-15"></path>
                    <path d="M6.352,5.997 L9.764,5.997 L9.764,7.563 L9.813,7.563 C10.288,6.663 11.45,5.713 13.181,5.713 C16.785,5.713 17.451,8.084 17.451,11.169 L17.451,17.45 L13.892,17.45 L13.892,11.88 C13.892,10.552 13.869,8.843 12.042,8.843 C10.19,8.843 9.907,10.291 9.907,11.785 L9.907,17.45 L6.352,17.45 L6.352,5.997 Z" id="Fill-16"></path>
                </g>
            </g>
        </g>
    </g>
</svg>