<?xml version="1.0" encoding="UTF-8" standalone="no"?>
<svg width="24px" height="24px" viewBox="0 0 24 24" version="1.1" xmlns="http://www.w3.org/2000/svg" xmlns:xlink="http://www.w3.org/1999/xlink">
    <!-- Generator: Sketch 3.7.1 (28215) - http://www.bohemiancoding.com/sketch -->
    <title>node-square</title>
    <desc>Created with Sketch.</desc>
    <defs></defs>
    <g id="svg" stroke="none" stroke-width="1" fill="none" fill-rule="evenodd">
        <g id="logos" transform="translate(-100.000000, -192.000000)" fill="#7FBD42">
            <g id="Node.js" transform="translate(101.000000, 192.000000)">
                <g id="is-color">
                    <path d="M10.639,24.0002 C10.318,24.0002 9.998,23.9162 9.717,23.7532 L6.78,22.0162 C6.342,21.7712 6.556,21.6842 6.7,21.6332 C7.285,21.4302 7.403,21.3832 8.028,21.0292 C8.093,20.9932 8.179,21.0062 8.246,21.0462 L10.502,22.3852 C10.584,22.4302 10.699,22.4302 10.774,22.3852 L19.569,17.3092 C19.651,17.2622 19.703,17.1682 19.703,17.0712 L19.703,6.9212 C19.703,6.8222 19.65,6.7292 19.566,6.6782 L10.775,1.6062 C10.694,1.5592 10.586,1.5592 10.504,1.6062 L1.716,6.6802 C1.631,6.7292 1.576,6.8252 1.576,6.9212 L1.576,17.0712 C1.576,17.1682 1.63,17.2602 1.715,17.3062 L4.124,18.6982 C5.431,19.3522 6.232,18.5822 6.232,17.8092 L6.232,7.7872 C6.232,7.6452 6.346,7.5342 6.488,7.5342 L7.603,7.5342 C7.742,7.5342 7.858,7.6462 7.858,7.7872 L7.858,17.8082 C7.858,19.5532 6.908,20.5532 5.254,20.5532 C4.746,20.5532 4.346,20.5532 3.228,20.0022 L0.922,18.6742 C0.352,18.3452 0,17.7292 0,17.0702 L0,6.9212 C0,6.2612 0.353,5.6462 0.922,5.3182 L9.717,0.2362 C10.273,-0.0788 11.013,-0.0788 11.565,0.2362 L20.359,5.3182 C20.929,5.6472 21.283,6.2622 21.283,6.9212 L21.283,17.0712 C21.283,17.7312 20.929,18.3442 20.359,18.6752 L11.565,23.7532 C11.284,23.9162 10.964,24.0002 10.639,24.0002" id="Fill-1"></path>
                    <path d="M13.355,17.0072 C9.506,17.0072 8.7,15.2402 8.7,13.7592 C8.7,13.6182 8.813,13.5062 8.954,13.5062 L10.091,13.5062 C10.218,13.5062 10.324,13.5972 10.344,13.7212 C10.516,14.8792 11.028,15.4632 13.355,15.4632 C15.208,15.4632 15.996,15.0442 15.996,14.0612 C15.996,13.4942 15.773,13.0742 12.893,12.7922 C10.487,12.5542 8.998,12.0222 8.998,10.0972 C8.998,8.3222 10.494,7.2642 13.001,7.2642 C15.819,7.2642 17.213,8.2422 17.389,10.3402 C17.396,10.4122 17.37,10.4822 17.322,10.5362 C17.274,10.5862 17.207,10.6172 17.136,10.6172 L15.995,10.6172 C15.877,10.6172 15.772,10.5332 15.748,10.4182 C15.475,9.2002 14.809,8.8102 13.003,8.8102 C10.98,8.8102 10.745,9.5152 10.745,10.0432 C10.745,10.6832 11.023,10.8692 13.754,11.2302 C16.457,11.5872 17.741,12.0932 17.741,13.9932 C17.74,15.9102 16.142,17.0072 13.355,17.0072" id="Fill-4"></path>
                </g>
            </g>
        </g>
    </g>
</svg>