<?xml version="1.0" encoding="UTF-8" standalone="no"?>
<svg width="82px" height="24px" viewBox="0 0 82 24" version="1.1" xmlns="http://www.w3.org/2000/svg" xmlns:xlink="http://www.w3.org/1999/xlink">
    <!-- Generator: Sketch 3.7.1 (28215) - http://www.bohemiancoding.com/sketch -->
    <title>node</title>
    <desc>Created with Sketch.</desc>
    <defs></defs>
    <g id="svg" stroke="none" stroke-width="1" fill="none" fill-rule="evenodd">
        <g id="logos" transform="translate(0.000000, -192.000000)">
            <g id="Node.js" transform="translate(0.000000, 192.000000)">
                <g id="is-black" fill="#000000">
                    <path d="M13,12.5171 C13,12.2651 12.867,12.0331 12.65,11.9081 L6.85,8.5701 C6.752,8.5131 6.642,8.4831 6.531,8.4781 L6.471,8.4781 C6.36,8.4831 6.25,8.5131 6.15,8.5701 L0.35,11.9081 C0.134,12.0331 0,12.2651 0,12.5171 L0.013,21.5051 C0.013,21.6301 0.078,21.7461 0.188,21.8081 C0.296,21.8721 0.429,21.8721 0.536,21.8081 L3.983,19.8341 C4.201,19.7051 4.334,19.4761 4.334,19.2261 L4.334,15.0271 C4.334,14.7771 4.467,14.5451 4.684,14.4211 L6.152,13.5761 C6.261,13.5131 6.381,13.4821 6.503,13.4821 C6.622,13.4821 6.745,13.5131 6.851,13.5761 L8.318,14.4211 C8.535,14.5451 8.668,14.7771 8.668,15.0271 L8.668,19.2261 C8.668,19.4761 8.802,19.7061 9.019,19.8341 L12.465,21.8081 C12.573,21.8721 12.708,21.8721 12.815,21.8081 C12.922,21.7471 12.989,21.6301 12.989,21.5051 L13,12.5171 Z" id="Fill-1"></path>
                    <path d="M42.652,17.0711 C42.652,17.1331 42.619,17.1911 42.564,17.2221 L40.573,18.3701 C40.519,18.4011 40.452,18.4011 40.398,18.3701 L38.407,17.2221 C38.353,17.1911 38.319,17.1331 38.319,17.0711 L38.319,14.7721 C38.319,14.7101 38.352,14.6521 38.406,14.6201 L40.397,13.4701 C40.451,13.4391 40.518,13.4391 40.572,13.4701 L42.563,14.6201 C42.617,14.6511 42.65,14.7091 42.65,14.7721 L42.65,17.0711 L42.652,17.0711 Z M43.19,0.0441 C43.081,-0.0159 42.949,-0.0149 42.842,0.0481 C42.735,0.1111 42.669,0.2261 42.669,0.3501 L42.669,9.2471 C42.669,9.3341 42.622,9.4151 42.547,9.4591 C42.471,9.5031 42.378,9.5031 42.302,9.4591 L40.85,8.6221 C40.633,8.4971 40.367,8.4971 40.15,8.6221 L34.35,11.9701 C34.133,12.0951 34,12.3261 34,12.5761 L34,19.2711 C34,19.5211 34.133,19.7521 34.35,19.8781 L40.149,23.2271 C40.366,23.3521 40.633,23.3521 40.85,23.2271 L46.65,19.8781 C46.867,19.7531 47,19.5221 47,19.2711 L47,2.5821 C47,2.3281 46.863,2.0941 46.641,1.9701 L43.19,0.0441 Z" id="Fill-3"></path>
                    <path d="M63.65,14.8521 C63.866,14.7261 64,14.4951 64,14.2451 L64,12.6171 C64,12.3671 63.867,12.1351 63.65,12.0091 L57.87,8.6531 C57.653,8.5271 57.384,8.5261 57.166,8.6521 L51.351,12.0091 C51.134,12.1351 51,12.3671 51,12.6181 L51,19.3321 C51,19.5851 51.135,19.8171 51.355,19.9421 L57.134,23.2351 C57.347,23.3571 57.608,23.3581 57.823,23.2391 L61.318,21.2961 C61.429,21.2341 61.498,21.1181 61.499,20.9911 C61.5,20.8641 61.432,20.7471 61.323,20.6841 L55.471,17.3251 C55.362,17.2621 55.295,17.1461 55.295,17.0201 L55.295,14.9161 C55.295,14.7911 55.362,14.6741 55.471,14.6121 L57.292,13.5621 C57.4,13.4991 57.534,13.4991 57.643,13.5621 L59.465,14.6121 C59.574,14.6751 59.641,14.7911 59.641,14.9161 L59.641,16.5721 C59.641,16.6971 59.708,16.8141 59.817,16.8761 C59.926,16.9391 60.06,16.9381 60.169,16.8751 L63.65,14.8521 Z" id="Fill-5"></path>
                </g>
                <g id="is-color" transform="translate(17.000000, 8.000000)" fill="#7FBD42">
                    <path d="M6.149,0.6181 C6.366,0.4931 6.633,0.4931 6.849,0.6181 L12.649,3.9651 C12.866,4.0901 13,4.3211 13,4.5711 L13,11.2701 C13,11.5201 12.866,11.7511 12.65,11.8771 L6.85,15.2271 C6.633,15.3521 6.366,15.3521 6.149,15.2271 L0.35,11.8771 C0.134,11.7521 0,11.5211 0,11.2711 L0,4.5711 C0,4.3211 0.134,4.0901 0.35,3.9641 L6.149,0.6181 Z" id="Fill-7"></path>
                    <path d="M58.499,15.0581 C58.303,15.0581 58.107,15.0071 57.936,14.9071 L56.142,13.8461 C55.874,13.6961 56.005,13.6431 56.093,13.6121 C56.45,13.4881 56.523,13.4591 56.904,13.2431 C56.944,13.2211 56.996,13.2291 57.037,13.2531 L58.415,14.0711 C58.465,14.0991 58.535,14.0991 58.581,14.0711 L63.953,10.9701 C64.003,10.9411 64.035,10.8841 64.035,10.8251 L64.035,4.6261 C64.035,4.5651 64.003,4.5091 63.952,4.4781 L58.582,1.3801 C58.532,1.3511 58.466,1.3511 58.417,1.3801 L53.049,4.4791 C52.997,4.5091 52.964,4.5671 52.964,4.6261 L52.964,10.8251 C52.964,10.8841 52.997,10.9411 53.049,10.9691 L54.521,11.8191 C55.319,12.2181 55.808,11.7481 55.808,11.2761 L55.808,5.1551 C55.808,5.0681 55.878,5.0001 55.964,5.0001 L56.645,5.0001 C56.73,5.0001 56.801,5.0681 56.801,5.1551 L56.801,11.2761 C56.801,12.3421 56.221,12.9531 55.21,12.9531 C54.9,12.9531 54.655,12.9531 53.973,12.6171 L52.564,11.8061 C52.215,11.6051 52,11.2291 52,10.8261 L52,4.6271 C52,4.2241 52.215,3.8481 52.563,3.6481 L57.935,0.5441 C58.275,0.3521 58.727,0.3521 59.064,0.5441 L64.435,3.6481 C64.784,3.8481 65,4.2241 65,4.6261 L65,10.8251 C65,11.2281 64.784,11.6031 64.436,11.8051 L59.065,14.9061 C58.893,15.0071 58.698,15.0581 58.499,15.0581" id="Fill-9"></path>
                    <path d="M60.158,10.7871 C57.807,10.7871 57.315,9.7081 57.315,8.8031 C57.315,8.7171 57.384,8.6481 57.47,8.6481 L58.165,8.6481 C58.243,8.6481 58.307,8.7041 58.319,8.7801 C58.424,9.4871 58.737,9.8441 60.158,9.8441 C61.29,9.8441 61.771,9.5881 61.771,8.9881 C61.771,8.6421 61.635,8.3851 59.876,8.2131 C58.406,8.0681 57.497,7.7431 57.497,6.5671 C57.497,5.4831 58.411,4.8371 59.942,4.8371 C61.663,4.8371 62.514,5.4341 62.622,6.7161 C62.626,6.7601 62.61,6.8031 62.581,6.8361 C62.552,6.8671 62.511,6.8861 62.467,6.8861 L61.77,6.8861 C61.698,6.8861 61.634,6.8351 61.619,6.7651 C61.452,6.0211 61.045,5.7831 59.941,5.7831 C58.705,5.7831 58.562,6.2131 58.562,6.5361 C58.562,6.9271 58.732,7.0401 60.4,7.2611 C62.051,7.4791 62.835,7.7881 62.835,8.9481 C62.836,10.1161 61.86,10.7871 60.158,10.7871" id="Fill-11"></path>
                    <path d="M40.433,6.5371 C40.475,6.5131 40.526,6.5131 40.568,6.5371 L41.684,7.1811 C41.726,7.2051 41.751,7.2501 41.751,7.2981 L41.751,8.5871 C41.751,8.6351 41.725,8.6801 41.684,8.7041 L40.568,9.3481 C40.526,9.3721 40.475,9.3721 40.433,9.3481 L39.318,8.7041 C39.276,8.6801 39.251,8.6351 39.251,8.5871 L39.251,7.2981 C39.251,7.2501 39.277,7.2051 39.318,7.1811 L40.433,6.5371 Z" id="Fill-13"></path>
                </g>
            </g>
        </g>
    </g>
</svg>