<?xml version="1.0" encoding="UTF-8" standalone="no"?>
<svg width="24px" height="24px" viewBox="0 0 24 24" version="1.1" xmlns="http://www.w3.org/2000/svg" xmlns:xlink="http://www.w3.org/1999/xlink">
    <!-- Generator: Sketch 3.7.1 (28215) - http://www.bohemiancoding.com/sketch -->
    <title>twitter-square</title>
    <desc>Created with Sketch.</desc>
    <defs></defs>
    <g id="svg" stroke="none" stroke-width="1" fill="none" fill-rule="evenodd">
        <g id="logos" transform="translate(-100.000000, -216.000000)" fill="#55ACEE">
            <g id="Twitter" transform="translate(100.000000, 218.000000)">
                <g id="is-color">
                    <path d="M23.999,2.309 C23.116,2.701 22.167,2.965 21.171,3.084 C22.188,2.475 22.968,1.51 23.336,0.36 C22.385,0.924 21.331,1.334 20.209,1.555 C19.311,0.598 18.031,-3.55271368e-15 16.615,-3.55271368e-15 C13.896,-3.55271368e-15 11.691,2.205 11.691,4.924 C11.691,5.31 11.735,5.686 11.818,6.046 C7.726,5.841 4.098,3.88 1.67,0.901 C1.246,1.629 1.003,2.474 1.003,3.377 C1.003,5.085 1.872,6.592 3.193,7.475 C2.386,7.449 1.627,7.228 0.963,6.859 L0.963,6.921 C0.963,9.307 2.66,11.297 4.913,11.749 C4.5,11.861 4.065,11.922 3.616,11.922 C3.299,11.922 2.99,11.891 2.69,11.834 C3.317,13.79 5.135,15.214 7.29,15.254 C5.605,16.575 3.482,17.362 1.175,17.362 C0.778,17.362 0.386,17.339 0,17.293 C2.179,18.69 4.767,19.505 7.548,19.505 C16.605,19.505 21.557,12.002 21.557,5.495 C21.557,5.282 21.552,5.069 21.543,4.858 C22.504,4.164 23.339,3.296 23.999,2.309" id="Page-1"></path>
                </g>
            </g>
        </g>
    </g>
</svg>